<?xml version='1.0' encoding='UTF-8'?>
<svg version="1.1" xmlns="http://www.w3.org/2000/svg" xmlns:xlink="http://www.w3.org/1999/xlink" viewBox="0 0 900 1000" stroke="#000000" stroke-width="2" stroke-linecap="square"><line x1="50" y1="50" x2="850" y2="50" /><line x1="50" y1="150" x2="850" y2="150" /><line x1="50" y1="250" x2="850" y2="250" /><line x1="50" y1="350" x2="850" y2="350" /><line x1="50" y1="450" x2="850" y2="450" /><line x1="50" y1="550" x2="850" y2="550" /><line x1="50" y1="650" x2="850" y2="650" /><line x1="50" y1="750" x2="850" y2="750" /><line x1="50" y1="850" x2="850" y2="850" /><line x1="50" y1="950" x2="850" y2="950" /><line x1="50" y1="50" x2="50" y2="950" /><line x1="150" y1="50" x2="150" y2="450" /><line x1="150" y1="550" x2="150" y2="950" /><line x1="250" y1="50" x2="250" y2="450" /><line x1="250" y1="550" x2="250" y2="950" /><line x1="350" y1="50" x2="350" y2="450" /><line x1="350" y1="550" x2="350" y2="950" /><line x1="450" y1="50" x2="450" y2="450" /><line x1="450" y1="550" x2="450" y2="950" /><line x1="550" y1="50" x2="550" y2="450" /><line x1="550" y1="550" x2="550" y2="950" /><line x1="650" y1="50" x2="650" y2="450" /><line x1="650" y1="550" x2="650" y2="950" /><line x1="750" y1="50" x2="750" y2="450" /><line x1="750" y1="550" x2="750" y2="950" /><line x1="850" y1="50" x2="850" y2="950" /><line x1="350" y1="50" x2="550" y2="250" /><line x1="350" y1="250" x2="550" y2="50" /><line x1="350" y1="750" x2="550" y2="950" /><line x1="350" y1="950" x2="550" y2="750" /><line x1="123" y1="243" x2="143" y2="243" /><line x1="143" y1="223" x2="143" y2="243" /><line x1="123" y1="257" x2="143" y2="257" /><line x1="143" y1="257" x2="143" y2="277" /><line x1="157" y1="243" x2="177" y2="243" /><line x1="157" y1="223" x2="157" y2="243" /><line x1="157" y1="257" x2="177" y2="257" /><line x1="157" y1="257" x2="157" y2="277" /><line x1="723" y1="243" x2="743" y2="243" /><line x1="743" y1="223" x2="743" y2="243" /><line x1="723" y1="257" x2="743" y2="257" /><line x1="743" y1="257" x2="743" y2="277" /><line x1="757" y1="243" x2="777" y2="243" /><line x1="757" y1="223" x2="757" y2="243" /><line x1="757" y1="257" x2="777" y2="257" /><line x1="757" y1="257" x2="757" y2="277" /><line x1="57" y1="343" x2="77" y2="343" /><line x1="57" y1="323" x2="57" y2="343" /><line x1="57" y1="357" x2="77" y2="357" /><line x1="57" y1="357" x2="57" y2="377" /><line x1="223" y1="343" x2="243" y2="343" /><line x1="243" y1="323" x2="243" y2="343" /><line x1="223" y1="357" x2="243" y2="357" /><line x1="243" y1="357" x2="243" y2="377" /><line x1="257" y1="343" x2="277" y2="343" /><line x1="257" y1="323" x2="257" y2="343" /><line x1="257" y1="357" x2="277" y2="357" /><line x1="257" y1="357" x2="257" y2="377" /><line x1="423" y1="343" x2="443" y2="343" /><line x1="443" y1="323" x2="443" y2="343" /><line x1="423" y1="357" x2="443" y2="357" /><line x1="443" y1="357" x2="443" y2="377" /><line x1="457" y1="343" x2="477" y2="343" /><line x1="457" y1="323" x2="457" y2="343" /><line x1="457" y1="357" x2="477" y2="357" /><line x1="457" y1="357" x2="457" y2="377" /><line x1="623" y1="343" x2="643" y2="343" /><line x1="643" y1="323" x2="643" y2="343" /><line x1="623" y1="357" x2="643" y2="357" /><line x1="643" y1="357" x2="643" y2="377" /><line x1="657" y1="343" x2="677" y2="343" /><line x1="657" y1="323" x2="657" y2="343" /><line x1="657" y1="357" x2="677" y2="357" /><line x1="657" y1="357" x2="657" y2="377" /><line x1="823" y1="343" x2="843" y2="343" /><line x1="843" y1="323" x2="843" y2="343" /><line x1="823" y1="357" x2="843" y2="357" /><line x1="843" y1="357" x2="843" y2="377" /><line x1="123" y1="743" x2="143" y2="743" /><line x1="143" y1="723" x2="143" y2="743" /><line x1="123" y1="757" x2="143" y2="757" /><line x1="143" y1="757" x2="143" y2="777" /><line x1="157" y1="743" x2="177" y2="743" /><line x1="157" y1="723" x2="157" y2="743" /><line x1="157" y1="757" x2="177" y2="757" /><line x1="157" y1="757" x2="157" y2="777" /><line x1="723" y1="743" x2="743" y2="743" /><line x1="743" y1="723" x2="743" y2="743" /><line x1="723" y1="757" x2="743" y2="757" /><line x1="743" y1="757" x2="743" y2="777" /><line x1="757" y1="743" x2="777" y2="743" /><line x1="757" y1="723" x2="757" y2="743" /><line x1="757" y1="757" x2="777" y2="757" /><line x1="757" y1="757" x2="757" y2="777" /><line x1="57" y1="643" x2="77" y2="643" /><line x1="57" y1="623" x2="57" y2="643" /><line x1="57" y1="657" x2="77" y2="657" /><line x1="57" y1="657" x2="57" y2="677" /><line x1="223" y1="643" x2="243" y2="643" /><line x1="243" y1="623" x2="243" y2="643" /><line x1="223" y1="657" x2="243" y2="657" /><line x1="243" y1="657" x2="243" y2="677" /><line x1="257" y1="643" x2="277" y2="643" /><line x1="257" y1="623" x2="257" y2="643" /><line x1="257" y1="657" x2="277" y2="657" /><line x1="257" y1="657" x2="257" y2="677" /><line x1="423" y1="643" x2="443" y2="643" /><line x1="443" y1="623" x2="443" y2="643" /><line x1="423" y1="657" x2="443" y2="657" /><line x1="443" y1="657" x2="443" y2="677" /><line x1="457" y1="643" x2="477" y2="643" /><line x1="457" y1="623" x2="457" y2="643" /><line x1="457" y1="657" x2="477" y2="657" /><line x1="457" y1="657" x2="457" y2="677" /><line x1="623" y1="643" x2="643" y2="643" /><line x1="643" y1="623" x2="643" y2="643" /><line x1="623" y1="657" x2="643" y2="657" /><line x1="643" y1="657" x2="643" y2="677" /><line x1="657" y1="643" x2="677" y2="643" /><line x1="657" y1="623" x2="657" y2="643" /><line x1="657" y1="657" x2="677" y2="657" /><line x1="657" y1="657" x2="657" y2="677" /><line x1="823" y1="643" x2="843" y2="643" /><line x1="843" y1="623" x2="843" y2="643" /><line x1="823" y1="657" x2="843" y2="657" /><line x1="843" y1="657" x2="843" y2="677" /></svg>